<?xml version="1.0" standalone="no"?>
<!DOCTYPE svg PUBLIC "-//W3C//DTD SVG 20010904//EN"
 "http://www.w3.org/TR/2001/REC-SVG-20010904/DTD/svg10.dtd">
<svg version="1.0" xmlns="http://www.w3.org/2000/svg"
 width="4676.000000pt" height="2991.000000pt" viewBox="0 0 4676.000000 2991.000000"
 preserveAspectRatio="xMidYMid meet">

<g transform="translate(0.000000,2991.000000) scale(0.100000,-0.100000)"
fill="#000000" stroke="none">
<path d="M1 27013 c1 -2473 3 -2874 15 -2733 164 2077 715 3667 1751 5058 226
303 348 389 565 400 125 6 223 -15 343 -73 233 -112 316 -317 225 -558 -30
-79 -179 -326 -460 -757 -346 -532 -476 -753 -624 -1061 -358 -746 -566 -1552
-641 -2484 -45 -562 -37 -1290 21 -1810 145 -1313 629 -2526 1430 -3583 201
-265 219 -292 245 -368 21 -61 24 -86 23 -219 0 -128 -4 -168 -28 -270 -41
-176 -78 -236 -171 -283 -67 -33 -140 -42 -310 -38 -193 5 -241 19 -330 98
-60 54 -177 206 -341 443 -722 1043 -1187 2077 -1423 3160 -44 203 -86 455
-121 735 -18 135 -49 344 -70 465 -48 271 -78 472 -89 590 -4 50 -9 -5265 -10
-11817 l-1 -11908 23380 0 23380 0 -2 12033 c-1 6617 -3 12007 -5 11977 -124
-2170 -661 -3835 -1690 -5247 -254 -349 -338 -427 -528 -496 -160 -57 -309
-56 -432 3 -126 62 -189 185 -213 420 -24 229 30 449 142 575 206 232 468 599
650 909 501 853 830 1913 942 3031 36 352 41 461 41 885 0 440 -5 544 -46 900
-138 1222 -577 2366 -1312 3413 -66 94 -167 246 -225 337 -58 91 -127 197
-154 237 -27 39 -61 100 -76 135 -23 55 -26 77 -27 173 0 105 2 114 33 177 61
124 221 241 387 283 73 19 223 19 290 1 83 -22 175 -75 235 -135 123 -123 508
-667 702 -991 526 -880 896 -1862 1092 -2901 63 -336 77 -461 96 -859 17 -351
38 -529 79 -655 19 -60 19 -44 20 2823 l1 2882 -13077 -1 -13078 -1 165 -24
c91 -13 503 -67 915 -119 413 -52 797 -101 855 -110 393 -59 684 -33 1250 112
448 115 445 115 595 110 190 -7 296 -47 451 -172 97 -77 260 -263 364 -415 13
-19 108 -120 210 -225 251 -255 356 -398 471 -639 90 -189 146 -395 170 -626
14 -139 6 -433 -16 -574 -20 -132 -80 -449 -105 -556 -44 -190 -133 -253 -372
-266 -154 -9 -212 -44 -274 -165 -58 -115 -66 -173 -75 -564 -7 -346 -16 -495
-59 -1020 -33 -405 -41 -579 -41 -870 -1 -618 63 -932 233 -1159 93 -124 218
-212 418 -293 117 -48 191 -95 233 -148 38 -47 74 -128 88 -195 17 -83 5 -271
-31 -460 -131 -705 -114 -1347 54 -1925 22 -75 24 -94 15 -133 -5 -26 -8 -56
-5 -68 12 -47 -6 -53 -200 -60 -203 -8 -249 1 -334 60 -40 29 -57 34 -160 44
-271 28 -482 33 -1470 33 -1231 0 -1364 -4 -1473 -37 -90 -28 -227 -32 -339
-10 -41 8 -108 11 -176 8 -270 -11 -443 69 -722 334 -80 75 -185 169 -235 207
-179 140 -434 295 -724 442 -364 185 -436 326 -317 626 73 187 81 232 80 479
0 197 -3 234 -37 445 -50 319 -63 486 -48 626 18 166 52 239 130 279 33 17
139 15 226 -4 203 -45 360 4 447 138 56 87 83 184 148 546 122 674 130 741
141 1255 4 231 11 440 14 465 11 90 65 659 75 790 24 328 9 699 -40 944 -65
322 -149 475 -304 551 -58 29 -135 50 -401 109 -329 73 -330 73 -298 89 20 11
33 27 37 44 17 83 27 185 41 433 27 465 60 620 178 844 53 98 51 149 -8 307
-66 175 -77 328 -32 416 24 46 70 79 132 94 17 4 -1212 7 -2730 7 -1518 -1
-2699 -5 -2625 -9 868 -52 1521 -177 2085 -399 142 -56 462 -219 590 -300 492
-311 816 -722 994 -1260 91 -277 125 -495 125 -795 0 -380 -64 -665 -214 -952
-112 -215 -247 -374 -782 -922 -142 -146 -258 -268 -258 -271 0 -4 49 -58 109
-121 111 -117 211 -205 526 -466 99 -82 224 -191 277 -242 291 -278 465 -571
540 -914 22 -99 23 -117 20 -537 -2 -394 0 -451 19 -610 81 -663 -152 -1142
-811 -1665 -805 -639 -1614 -989 -2545 -1102 -232 -28 -847 -23 -1930 15 -936
33 -1400 48 -1830 57 -302 7 -367 11 -454 31 -175 40 -320 122 -656 373 -77
57 -178 129 -225 159 -47 30 -188 131 -313 225 -240 178 -357 256 -471 314
-181 92 -276 262 -296 533 -5 69 -14 187 -20 264 -6 76 -24 236 -40 355 -51
376 -55 421 -55 631 0 264 22 351 112 451 71 79 155 114 311 129 386 38 543
200 568 580 3 52 1 275 -5 495 -6 220 -15 918 -21 1550 -6 633 -15 1287 -20
1455 -9 341 -17 386 -74 443 -55 55 -93 62 -351 62 l-230 0 -48 28 c-59 35
-100 103 -124 207 -17 69 -18 147 -16 986 1 889 2 913 21 957 36 82 26 80 527
90 242 4 638 5 880 0 1093 -20 1282 -13 2277 82 536 51 806 73 1038 84 91 4
-3094 9 -7077 10 l-7243 1 1 -2897z m30813 2877 c195 -15 397 -44 621 -91 310
-65 320 -67 565 -108 449 -77 934 -141 1058 -141 103 0 197 21 264 57 47 26
168 143 168 163 0 24 67 44 150 46 47 1 180 5 295 9 214 8 375 0 635 -31 478
-57 702 -87 750 -100 221 -63 403 -199 673 -504 171 -193 298 -321 408 -410
205 -167 294 -283 355 -462 37 -111 47 -202 41 -381 -6 -166 -13 -215 -72
-517 -65 -325 -67 -346 -72 -754 -4 -251 -1 -425 6 -518 50 -576 221 -976 557
-1298 125 -119 235 -202 405 -305 257 -155 359 -298 359 -503 0 -51 -116
-1061 -155 -1349 -31 -226 -38 -259 -63 -292 -29 -39 -67 -38 -173 8 -130 55
-321 111 -399 117 -134 11 -163 -39 -234 -401 -43 -220 -49 -291 -50 -535 0
-243 5 -308 54 -720 43 -357 58 -524 71 -809 14 -311 9 -551 -13 -602 -20 -45
-78 -94 -132 -109 -61 -17 -3082 -19 -3251 -2 -209 21 -292 43 -466 124 -128
58 -212 78 -339 78 -122 0 -232 -18 -488 -81 -953 -232 -1920 -201 -2720 87
-775 279 -1388 754 -1827 1414 -133 201 -208 331 -321 565 -249 514 -459 1172
-548 1715 -70 428 -91 766 -83 1375 5 409 11 557 32 810 78 940 255 1662 566
2303 143 296 269 504 459 757 745 993 1762 1480 2914 1395z m11664 -1335 c167
-40 293 -139 538 -425 783 -915 1253 -2005 1403 -3250 73 -598 84 -937 46
-1380 -121 -1409 -590 -2593 -1416 -3575 -259 -308 -360 -406 -479 -464 -70
-34 -81 -36 -165 -35 -72 1 -104 6 -159 27 -200 78 -335 217 -380 393 -33 129
-10 363 49 491 39 87 92 150 280 337 161 160 179 183 297 361 507 766 788
1535 898 2460 27 226 38 691 21 908 -71 927 -385 1767 -999 2677 -154 228
-271 386 -351 475 -153 169 -234 398 -202 570 30 161 144 306 302 384 124 61
204 73 317 46z m-37924 -34 c32 -11 87 -39 122 -61 215 -141 288 -342 213
-586 -40 -128 -92 -214 -242 -396 -303 -366 -575 -783 -777 -1187 -284 -568
-457 -1156 -527 -1791 -25 -230 -25 -815 0 -1040 94 -835 339 -1523 790 -2223
123 -191 295 -410 521 -667 189 -215 240 -322 253 -530 21 -341 -198 -620
-486 -620 -180 0 -321 79 -507 284 -214 236 -402 480 -597 776 -603 917 -926
1909 -976 3005 -14 300 -6 1008 13 1230 36 399 85 697 171 1045 228 917 639
1683 1292 2413 186 207 338 321 484 362 69 19 175 14 253 -14z m36061 -1163
c96 -24 210 -100 407 -270 434 -374 751 -765 968 -1197 190 -380 315 -803 365
-1242 14 -116 17 -235 16 -604 -1 -253 -6 -518 -12 -590 -86 -1072 -562 -1931
-1439 -2592 -207 -156 -347 -212 -508 -200 -139 9 -258 74 -374 205 -178 198
-183 407 -18 626 23 30 114 122 204 205 171 157 351 349 482 511 186 232 377
563 468 811 183 500 231 1120 125 1634 -75 362 -240 722 -476 1040 -156 210
-342 408 -650 694 -124 114 -185 188 -229 271 -26 49 -29 65 -29 150 0 91 2
100 37 171 44 89 144 209 227 273 143 110 283 143 436 104z m-34100 -52 c142
-49 209 -103 251 -206 112 -271 92 -526 -53 -681 -26 -29 -93 -81 -148 -117
-153 -99 -259 -185 -390 -317 -397 -397 -647 -923 -742 -1560 -14 -94 -17
-183 -17 -410 0 -252 3 -309 22 -435 52 -332 135 -598 271 -870 143 -285 219
-380 626 -785 338 -336 394 -402 449 -527 87 -198 46 -426 -106 -584 -93 -97
-227 -154 -360 -154 -68 0 -191 30 -263 65 -195 94 -644 497 -879 790 -540
674 -795 1496 -785 2536 1 90 -2 209 -6 264 -8 110 7 362 31 518 93 623 371
1211 824 1743 195 228 662 664 765 714 84 41 143 50 290 47 121 -3 151 -8 220
-31z m4020 -9396 c173 -14 321 -34 660 -90 386 -63 486 -77 677 -94 160 -15
228 -35 241 -71 4 -8 14 -15 24 -15 10 0 66 -11 124 -24 403 -92 763 -360
1031 -771 201 -306 320 -651 350 -1010 30 -367 -57 -699 -259 -985 -93 -131
-316 -351 -565 -559 -214 -177 -227 -193 -195 -233 6 -8 48 -41 92 -73 44 -32
145 -121 225 -200 80 -78 206 -193 280 -256 406 -346 599 -717 651 -1249 26
-273 -17 -706 -107 -1065 -48 -195 -156 -368 -340 -545 -125 -121 -234 -205
-470 -362 -772 -514 -1423 -727 -2159 -704 -115 3 -228 9 -250 11 -22 3 -470
9 -995 15 -958 9 -1075 14 -1402 50 -269 31 -360 62 -639 216 -85 47 -163 100
-208 140 -50 45 -107 82 -184 120 -319 159 -539 374 -673 658 -123 261 -173
529 -181 973 -5 235 -3 281 12 342 36 146 124 229 276 260 183 36 219 45 264
68 97 48 170 141 196 250 8 35 11 352 9 1173 -5 2075 -4 1980 -24 2025 -22 51
-51 82 -101 107 -55 29 -196 21 -318 -18 l-88 -28 -27 21 c-34 25 -66 88 -89
173 -17 60 -18 122 -15 800 2 404 7 739 12 744 5 5 30 10 57 12 26 2 95 8 153
14 175 17 200 19 350 30 347 24 622 32 1545 46 698 10 1009 18 1080 28 55 8
195 28 310 45 116 16 230 32 255 34 97 8 301 6 415 -3z m15745 -22 c65 -19
141 -70 233 -156 229 -214 473 -396 822 -614 223 -139 290 -168 388 -168 84 0
120 23 154 96 23 51 25 65 22 172 -9 324 0 396 60 479 84 116 223 141 651 118
105 -6 562 -9 1060 -7 955 3 945 4 1114 -55 128 -44 209 -85 337 -171 353
-236 630 -597 731 -951 19 -67 22 -102 23 -306 2 -217 3 -235 28 -318 48 -159
62 -245 62 -377 0 -114 -2 -130 -26 -180 -67 -143 -188 -197 -459 -207 -126
-4 -161 -9 -185 -24 -32 -19 -67 -74 -80 -124 -13 -53 -7 -2758 6 -2812 41
-167 164 -293 406 -417 142 -73 201 -133 238 -241 16 -46 17 -128 17 -967 l0
-918 -21 -44 c-42 -86 -104 -100 -281 -66 -289 55 -394 60 -1205 64 -618 3
-721 8 -845 43 -207 59 -346 175 -636 533 -96 118 -210 255 -254 303 -43 49
-168 199 -277 335 -109 136 -251 302 -317 370 -116 120 -244 232 -263 232 -27
0 -57 -361 -49 -584 6 -155 19 -279 76 -761 34 -292 25 -365 -61 -447 -87 -85
-171 -93 -529 -53 -654 73 -1269 66 -1779 -21 -168 -28 -227 -30 -279 -9 -23
10 -86 66 -162 144 -205 209 -371 330 -771 565 -238 140 -293 180 -320 240
-24 53 -24 79 3 206 20 100 21 134 23 700 1 539 3 599 19 635 46 108 154 149
332 126 95 -12 134 -4 177 36 62 59 91 145 132 389 143 864 161 1793 54 2824
-24 238 -45 388 -57 421 -32 84 -107 119 -253 119 -164 0 -271 55 -320 162
-23 50 -24 63 -23 253 0 110 9 290 19 399 20 230 17 433 -10 541 -21 86 -24
201 -6 235 51 96 74 100 525 100 582 0 968 37 1446 140 74 16 146 31 160 33
33 5 106 -2 150 -15z m-10488 -33 c300 -77 640 -130 1013 -157 258 -19 2629
-19 2865 0 336 27 556 59 820 119 310 70 391 39 727 -278 201 -190 237 -216
426 -303 290 -133 455 -330 515 -615 12 -58 15 -120 12 -261 -7 -451 -8 -438
38 -625 79 -326 78 -396 -10 -470 -43 -36 -89 -56 -295 -125 -99 -34 -190 -71
-216 -89 -80 -55 -105 -146 -72 -259 9 -29 59 -159 112 -290 53 -130 110 -277
128 -327 42 -115 226 -544 340 -790 280 -608 470 -922 711 -1178 299 -317 373
-462 419 -822 54 -424 111 -1324 93 -1478 -18 -169 -95 -257 -251 -288 -84
-16 -337 -11 -512 11 -88 11 -261 38 -385 60 -523 96 -736 113 -1090 91 -207
-13 -265 -24 -395 -74 -235 -91 -435 -105 -655 -47 -107 29 -300 128 -404 207
-96 74 -173 117 -547 307 l-246 125 -40 -42 c-51 -53 -64 -78 -65 -126 0 -48
4 -62 62 -196 58 -135 64 -166 45 -211 -43 -102 -307 -112 -815 -29 -257 42
-685 68 -1130 68 -428 1 -638 -27 -842 -110 -74 -30 -158 -29 -223 2 -45 22
-392 251 -500 331 -38 28 -154 118 -257 200 -206 165 -286 208 -512 281 -188
60 -275 114 -319 197 -19 35 -22 57 -22 151 0 91 6 132 33 234 44 171 56 305
48 535 -3 105 -9 315 -12 466 -5 266 -5 276 15 308 31 48 61 56 163 42 178
-26 285 5 388 110 70 71 112 151 235 450 424 1026 693 1853 860 2645 55 258
62 365 30 430 -40 79 -128 107 -271 86 -215 -32 -321 -1 -376 109 -49 98 -52
175 -23 810 15 341 58 708 91 789 19 46 50 70 91 71 17 0 109 -20 205 -45z
m20097 11 c179 -24 356 -60 601 -123 325 -83 391 -94 592 -100 262 -8 402 20
629 123 142 65 228 84 404 91 442 17 1029 -128 1346 -332 42 -27 122 -95 184
-159 63 -63 148 -136 196 -169 210 -141 345 -330 405 -566 52 -204 49 -426
-11 -861 -44 -323 -45 -336 -46 -540 0 -276 34 -510 107 -728 127 -380 339
-633 683 -813 150 -79 252 -194 281 -318 19 -80 8 -228 -24 -331 -21 -68 -29
-118 -36 -252 -5 -92 -14 -188 -20 -213 -6 -25 -19 -105 -30 -178 -33 -228
-71 -311 -163 -359 -34 -18 -57 -22 -122 -21 -44 1 -102 8 -130 16 -195 57
-217 58 -259 12 -33 -35 -44 -83 -56 -235 -21 -275 -11 -528 45 -1160 67 -756
64 -903 -16 -977 -62 -56 -66 -57 -579 -64 -261 -4 -632 -10 -825 -14 -365 -8
-637 2 -883 31 -70 8 -172 20 -227 26 -184 20 -596 13 -1010 -17 -866 -64
-1408 -29 -1956 126 -599 169 -1125 491 -1505 920 -411 464 -671 1015 -803
1699 -141 731 -176 1498 -100 2175 102 909 397 1740 817 2300 109 146 302 350
437 463 49 41 97 89 105 106 14 28 20 31 65 32 62 1 177 46 450 179 326 158
483 212 685 235 52 5 111 12 130 14 83 10 522 -3 639 -18z m-23019 -10805
c221 -50 380 -138 536 -296 189 -191 347 -488 420 -790 74 -307 69 -675 -13
-990 -71 -271 -207 -523 -383 -709 -112 -117 -192 -177 -325 -241 -183 -88
-362 -122 -585 -111 -325 16 -562 125 -788 360 -289 302 -432 705 -432 1213 0
393 102 760 291 1044 78 116 265 306 370 376 123 81 285 139 454 163 98 14
358 3 455 -19z m11165 0 c111 -29 247 -98 333 -170 l72 -61 0 100 0 100 275 0
275 0 0 -560 0 -560 -283 0 -284 0 -33 102 c-81 246 -242 377 -417 340 -32 -6
-76 -24 -98 -40 -88 -61 -157 -207 -191 -405 -22 -126 -30 -528 -14 -684 40
-393 179 -590 401 -570 178 16 301 186 369 507 11 52 20 107 20 121 0 14 2 28
6 31 5 6 571 -256 587 -271 11 -10 -28 -194 -64 -306 -16 -49 -56 -144 -88
-210 -163 -333 -386 -516 -716 -587 -82 -17 -389 -17 -485 1 -395 72 -648 268
-839 650 -260 518 -261 1302 -2 1833 181 371 436 593 749 653 107 20 320 13
427 -14z m9943 14 c167 -24 329 -85 467 -178 90 -60 234 -211 308 -325 225
-341 331 -727 314 -1147 -19 -465 -175 -864 -450 -1152 -174 -182 -345 -278
-587 -330 -125 -26 -402 -24 -526 4 -244 57 -433 169 -607 363 -271 301 -407
696 -407 1185 0 310 63 603 184 858 128 269 362 517 590 627 199 96 462 131
714 95z m7157 -20 c93 -19 214 -81 298 -150 l67 -57 0 91 0 91 260 0 260 0 0
-435 0 -435 -258 0 -258 0 -12 47 c-23 84 -73 176 -126 229 -63 62 -131 89
-212 82 -99 -8 -144 -65 -144 -181 0 -127 9 -136 340 -360 463 -312 526 -371
635 -587 88 -174 120 -316 120 -535 0 -285 -64 -479 -223 -671 -250 -303 -677
-338 -997 -81 l-70 56 -3 -94 -3 -95 -259 0 -260 0 0 490 0 490 259 0 258 0
18 -62 c26 -98 79 -198 130 -250 82 -84 206 -111 295 -65 65 32 85 73 85 172
0 149 -46 195 -427 429 -220 135 -377 269 -456 389 -136 210 -191 442 -171
718 17 221 77 393 188 532 163 205 412 295 666 242z m-35716 -49 c255 -44 391
-112 536 -268 80 -87 161 -243 197 -383 20 -80 23 -113 23 -290 0 -174 -3
-212 -23 -289 -77 -305 -284 -528 -554 -595 -139 -35 -220 -43 -535 -48 l-313
-5 0 -214 0 -214 115 0 115 0 0 -365 0 -365 -670 0 -670 0 0 365 0 365 110 0
110 0 0 800 0 800 -110 0 -110 0 0 366 0 365 843 -4 c721 -4 856 -7 936 -21z
m3603 13 c271 -19 436 -56 554 -125 104 -61 217 -189 283 -321 101 -203 126
-506 60 -743 -43 -152 -151 -326 -246 -395 -23 -16 -42 -34 -42 -40 -1 -5 68
-163 153 -350 l153 -340 82 -3 81 -3 0 -365 0 -364 -411 2 -412 3 -247 620
-248 620 -141 3 -141 3 0 -261 0 -260 85 0 85 0 0 -365 0 -365 -620 0 -620 0
0 365 0 365 90 0 90 0 0 800 0 800 -90 0 -90 0 0 365 0 365 719 0 c408 0 786
-5 873 -11z m7726 -12 c162 -26 258 -54 366 -106 230 -110 403 -284 525 -527
126 -250 187 -503 198 -819 13 -369 -49 -670 -197 -970 -65 -130 -118 -207
-208 -299 -135 -138 -289 -227 -462 -267 -157 -36 -270 -42 -1007 -46 l-733
-5 0 366 0 366 90 0 90 0 0 800 0 800 -90 0 -90 0 0 366 0 366 708 -5 c589 -3
724 -7 810 -20z m3542 -342 l0 -365 -56 0 -56 0 5 -667 c5 -727 9 -778 63
-891 71 -146 263 -152 335 -10 49 96 52 136 56 876 l4 692 -60 0 -61 0 0 365
0 365 430 0 430 0 0 -365 0 -365 -90 0 -90 0 0 -663 c0 -717 -5 -819 -55
-1025 -92 -381 -334 -620 -688 -677 -229 -37 -478 -4 -672 90 -156 75 -260
183 -345 359 -126 259 -149 484 -150 1444 l0 472 -85 0 -85 0 0 365 0 365 585
0 585 0 0 -365z m8330 -280 l0 -645 -215 0 -215 0 0 280 0 280 -130 0 -130 0
0 -800 0 -800 100 0 100 0 0 -365 0 -365 -645 0 -645 0 0 365 0 365 100 0 100
0 0 800 0 800 -130 0 -130 0 0 -280 0 -280 -215 0 -215 0 0 645 0 645 1135 0
1135 0 0 -645z m2560 280 l0 -365 -105 0 -105 0 0 -800 0 -800 105 0 105 0 0
-365 0 -365 -650 0 -650 0 0 365 0 365 105 0 105 0 0 800 0 800 -105 0 -105 0
0 365 0 365 650 0 650 0 0 -365z m6675 -425 c226 -434 413 -790 418 -790 4 0
7 191 7 425 l0 425 -95 0 -95 0 0 365 0 365 460 0 460 0 0 -365 0 -365 -95 0
-95 0 0 -1185 0 -1185 -381 2 -380 3 -68 130 c-86 164 -830 1593 -864 1660
l-26 50 -1 -537 0 -538 100 0 100 0 0 -365 0 -365 -470 0 -470 0 0 365 0 365
100 0 100 0 0 800 0 800 -100 0 -100 0 0 365 0 365 543 0 542 0 410 -790z
m-23142 -4093 c101 -35 192 -94 261 -168 270 -291 288 -869 38 -1199 -78 -104
-189 -181 -322 -226 -79 -27 -302 -27 -380 0 -139 48 -242 119 -321 225 -249
328 -233 905 32 1196 88 95 177 148 314 186 103 28 272 22 378 -14z m5550 18
c110 -16 273 -68 366 -115 34 -16 61 -32 61 -34 0 -6 -101 -251 -106 -255 -2
-2 -39 12 -81 32 -43 20 -118 48 -168 63 -79 24 -108 27 -240 28 -163 1 -214
-10 -284 -62 -69 -51 -91 -167 -44 -231 42 -56 78 -71 172 -71 47 0 140 9 206
20 139 23 298 26 370 6 191 -51 295 -205 295 -436 0 -170 -46 -286 -156 -398
-133 -134 -304 -188 -564 -179 -165 6 -282 31 -421 91 -79 35 -223 118 -234
136 -6 10 116 260 126 260 4 0 31 -16 60 -36 81 -54 199 -111 281 -135 104
-30 337 -38 427 -14 112 29 185 81 211 150 17 43 15 137 -4 172 -51 100 -154
123 -374 83 -270 -49 -343 -47 -460 12 -141 70 -212 204 -212 398 0 196 71
339 213 431 138 90 331 119 560 84z m17950 0 c110 -16 273 -68 366 -115 34
-16 61 -32 61 -34 0 -6 -102 -251 -106 -255 -2 -2 -32 9 -66 26 -149 73 -320
108 -480 101 -155 -8 -242 -50 -280 -136 -36 -81 -13 -158 62 -209 44 -30 151
-31 332 -2 99 16 163 20 249 17 106 -4 122 -7 182 -36 151 -75 227 -213 227
-413 0 -169 -46 -287 -154 -395 -135 -136 -306 -190 -566 -181 -165 6 -284 32
-421 91 -79 35 -223 118 -234 136 -6 10 116 260 127 260 5 0 29 -15 55 -34 71
-50 200 -112 289 -138 69 -20 102 -23 249 -23 155 0 175 2 230 24 87 35 149
99 164 171 23 114 -31 206 -135 230 -63 15 -131 12 -279 -14 -211 -37 -243
-39 -324 -22 -208 44 -321 196 -321 436 0 196 71 339 213 431 138 90 331 119
560 84z m-29757 -100 c18 -49 99 -272 179 -495 81 -223 196 -540 256 -706 60
-166 109 -304 109 -308 0 -4 -57 -5 -127 -4 l-126 3 -46 130 -46 130 -356 3
-355 2 -44 -135 -44 -135 -128 0 c-70 0 -128 2 -128 4 0 4 100 290 372 1061
71 204 143 410 160 458 l30 88 130 -3 130 -3 34 -90z m1254 -392 c0 -518 4
-566 50 -670 30 -68 103 -139 168 -163 77 -29 204 -29 268 0 97 42 145 95 187
206 21 58 22 71 27 584 l5 525 123 3 123 3 -3 -543 c-4 -524 -5 -546 -26 -623
-81 -293 -260 -448 -532 -462 -297 -15 -511 140 -601 437 -23 74 -23 86 -27
633 l-3 557 121 0 120 0 0 -487z m2194 472 c292 -51 472 -219 547 -510 21 -78
24 -114 23 -270 0 -211 -18 -304 -85 -444 -53 -109 -169 -229 -274 -283 -143
-74 -183 -80 -527 -85 l-308 -5 0 806 0 806 269 0 c195 0 292 -4 355 -15z
m1354 -792 l2 -803 -125 0 -125 0 0 805 0 806 123 -3 122 -3 3 -802z m3897
727 c144 -474 349 -1130 355 -1130 4 0 35 91 68 203 34 111 118 382 186 602
l123 400 138 3 c75 1 135 -1 132 -5 -2 -4 -27 -78 -55 -163 -187 -572 -437
-1334 -454 -1383 l-21 -58 -120 3 -120 3 -208 635 c-115 349 -233 710 -263
803 l-54 168 135 -3 136 -3 22 -75z m1725 -725 l0 -805 -125 0 -125 0 0 805 0
805 125 0 125 0 0 -805z m2720 318 c0 -516 4 -566 49 -667 11 -25 41 -68 66
-95 61 -65 127 -91 233 -91 95 0 137 11 198 53 57 39 96 92 126 172 23 59 23
71 28 585 l5 525 123 3 123 3 -3 -543 c-4 -524 -5 -546 -26 -623 -81 -292
-260 -448 -532 -462 -252 -13 -445 95 -549 309 -77 157 -75 137 -79 761 l-3
557 121 0 120 0 0 -487z m2246 447 c7 -19 97 -267 199 -550 103 -283 227 -626
276 -761 49 -135 89 -249 89 -253 0 -4 -57 -5 -126 -4 l-127 3 -46 130 -46
130 -355 3 -356 2 -44 -135 -44 -135 -128 0 c-70 0 -128 2 -128 4 0 4 126 363
345 986 86 245 170 485 187 533 l30 88 130 -3 130 -3 14 -35z m1321 -623 l3
-657 347 -3 348 -2 3 -143 3 -142 -476 0 -475 0 0 805 0 806 123 -3 122 -3 2
-658z m2836 652 c136 -21 253 -91 320 -192 128 -192 123 -553 -10 -746 -33
-48 -96 -106 -148 -137 -17 -9 -7 -33 112 -267 l131 -257 -150 0 -149 0 -112
230 -112 230 -188 -3 -188 -2 1 -228 1 -227 -126 0 -125 0 0 805 0 805 336 0
c196 0 365 -5 407 -11z m2045 -131 l-3 -143 -387 -2 c-214 -1 -388 -5 -388 -8
0 -3 0 -75 0 -160 l0 -155 345 0 346 0 -3 -132 -3 -133 -343 -2 -343 -2 0
-221 0 -221 393 -2 393 -2 3 -142 3 -143 -521 0 -520 0 0 805 0 805 515 0 516
0 -3 -142z m1227 -118 c204 -142 373 -259 378 -260 4 0 7 117 7 260 l0 260
120 0 120 0 0 -805 0 -805 -120 0 -120 0 0 368 0 369 -137 95 c-76 52 -246
170 -378 262 l-240 167 -3 -630 -2 -631 -120 0 -120 0 0 805 0 805 123 0 122
0 370 -260z m2335 115 l0 -146 -220 3 -220 3 0 -662 0 -663 -125 0 -125 0 0
661 1 660 -221 -1 -220 -1 0 146 0 145 565 0 565 0 0 -145z m1286 50 c18 -49
108 -297 199 -550 92 -253 207 -571 256 -706 49 -135 89 -248 89 -252 0 -4
-57 -6 -127 -5 l-126 3 -46 132 -46 133 -355 0 -356 0 -44 -135 -44 -135 -128
0 c-70 0 -128 2 -128 4 0 3 13 42 29 88 49 139 398 1130 468 1331 l66 188 130
-3 130 -3 33 -90z m1304 -565 l-1 -661 348 -2 348 -2 3 -143 3 -142 -476 0
-475 0 0 805 0 805 125 0 125 0 0 -660z m-19782 -132 l-3 -113 -345 0 -345 0
-3 113 -3 112 351 0 351 0 -3 -112z"/>
<path d="M35738 28609 c-29 -27 -96 -220 -120 -344 -12 -69 -16 -293 -10 -675
1 -96 1 -456 -1 -800 l-3 -625 -25 -55 c-62 -132 -172 -185 -379 -182 -58 0
-262 17 -455 36 -683 68 -679 68 -740 15 -66 -58 -70 -150 -10 -239 65 -96
146 -179 204 -208 l56 -27 835 0 c767 0 840 1 900 18 163 44 284 136 347 265
35 70 38 83 41 182 4 96 1 120 -32 248 -55 215 -69 327 -69 562 -1 251 17 414
104 945 27 171 29 197 20 264 -29 192 -139 388 -294 519 -90 77 -174 114 -268
120 -68 4 -78 2 -101 -19z"/>
<path d="M31245 27775 c-430 -67 -822 -326 -1067 -705 -206 -316 -379 -867
-454 -1440 -22 -166 -31 -716 -15 -918 30 -387 119 -885 207 -1163 152 -478
446 -810 829 -937 156 -52 261 -65 470 -60 101 2 187 7 190 10 4 3 -10 38 -29
76 -63 125 -157 353 -212 517 -246 723 -297 1483 -158 2380 161 1043 403 1522
925 1832 186 110 227 183 147 261 -56 56 -262 126 -442 151 -100 14 -289 12
-391 -4z"/>
<path d="M32320 27275 c-79 -17 -223 -88 -310 -154 -95 -71 -232 -217 -296
-316 -116 -179 -203 -402 -283 -725 -106 -431 -147 -779 -150 -1257 -3 -464
35 -852 125 -1308 99 -498 320 -793 652 -871 95 -23 248 -20 345 5 213 55 402
217 481 409 38 96 49 159 45 273 -4 92 -8 112 -34 164 -36 71 -96 117 -177
135 -29 6 -136 15 -238 20 -200 10 -256 21 -353 73 -69 36 -111 82 -145 156
-34 75 -34 171 1 301 62 229 81 448 71 855 -5 250 -4 300 10 360 35 145 117
229 261 265 38 9 202 12 659 10 l608 -1 -23 29 c-258 314 -379 520 -553 942
-161 387 -182 426 -282 521 -122 115 -246 149 -414 114z"/>
<path d="M36877 24559 c-56 -13 -111 -44 -140 -79 -41 -48 -51 -100 -41 -220
13 -181 6 -627 -11 -688 -20 -66 -78 -128 -130 -138 -60 -11 -174 2 -270 31
-165 50 -295 37 -361 -37 -72 -79 -84 -154 -84 -563 0 -305 -10 -739 -25
-1055 -8 -170 -25 -663 -34 -1000 -8 -263 -11 -301 -30 -351 -40 -105 -125
-161 -317 -210 -178 -45 -268 -54 -509 -53 -219 1 -240 3 -755 64 -224 27
-522 36 -666 21 -184 -19 -268 7 -476 150 -87 59 -139 74 -253 73 -88 0 -129
-8 -340 -62 -552 -140 -965 -193 -1506 -193 -564 0 -1102 76 -1492 211 -312
107 -673 294 -1073 555 -73 48 -114 69 -114 60 0 -28 43 -140 83 -218 70 -137
213 -272 487 -459 637 -436 1356 -684 2300 -794 192 -22 526 -22 715 0 366 44
746 139 1255 311 124 42 252 83 285 91 109 25 171 -11 214 -123 36 -94 68
-140 116 -169 41 -24 64 -28 263 -45 348 -30 492 -25 1027 31 419 44 502 50
715 50 221 0 318 -9 510 -46 107 -21 152 -25 220 -21 120 8 208 38 258 87 59
56 67 95 47 228 -12 74 -19 223 -25 482 -7 353 -9 385 -38 550 -65 372 -68
661 -16 1335 17 230 30 285 78 341 55 65 111 83 321 105 289 30 386 63 433
147 35 63 43 117 52 367 8 236 9 243 49 399 33 129 41 175 41 250 0 246 -111
399 -378 523 -137 64 -280 87 -385 62z"/>
<path d="M11971 17434 c-59 -50 -38 -114 95 -294 282 -378 436 -704 500 -1055
26 -142 26 -477 1 -629 -58 -340 -158 -557 -473 -1022 -89 -133 -160 -245
-157 -248 15 -15 173 -5 234 14 102 32 177 84 513 355 732 591 855 1240 391
2069 -99 177 -160 262 -254 357 -95 95 -159 144 -289 223 -129 79 -481 256
-507 256 -13 0 -37 -12 -54 -26z"/>
<path d="M9330 16138 c-61 -31 -97 -87 -115 -177 -14 -63 -14 -115 -6 -370 11
-323 20 -377 68 -423 50 -46 72 -52 193 -54 63 0 178 -4 255 -8 213 -12 317
14 401 101 55 56 89 131 127 282 27 110 32 143 32 261 0 157 -11 188 -91 259
-80 70 -254 111 -475 111 -63 0 -112 6 -140 16 -24 9 -80 18 -124 21 -70 4
-86 2 -125 -19z"/>
<path d="M12460 13655 c0 -3 31 -58 70 -122 274 -460 330 -959 185 -1676 -65
-326 -80 -359 -244 -550 -173 -201 -333 -327 -556 -437 -257 -127 -507 -190
-905 -231 -257 -25 -1047 -22 -1605 7 -601 32 -1334 38 -1655 15 -231 -17
-556 -53 -566 -63 -5 -6 234 -211 336 -290 298 -229 526 -302 872 -278 186 13
588 13 803 0 341 -21 717 -60 1242 -130 480 -65 747 -63 1106 6 472 91 933
311 1347 641 384 307 564 629 634 1138 34 245 29 692 -9 870 -106 498 -471
919 -926 1068 -87 29 -129 39 -129 32z"/>
<path d="M9406 13239 c-116 -17 -169 -65 -181 -163 -11 -88 1 -556 15 -605 8
-25 29 -60 50 -81 60 -60 93 -65 445 -65 300 0 312 1 367 23 104 42 147 94
179 219 28 111 46 385 30 470 -19 106 -48 150 -121 189 -32 17 -65 19 -380 20
-190 1 -371 -2 -404 -7z"/>
<path d="M31035 17028 c-9 -192 -3 -421 15 -561 28 -224 -24 -356 -165 -418
-68 -30 -199 -36 -327 -15 -209 34 -290 10 -341 -102 l-22 -47 0 -1645 c0
-1625 0 -1645 20 -1685 25 -49 69 -76 127 -76 133 -1 448 14 478 23 54 17 86
44 111 96 23 47 23 50 20 371 -1 178 3 484 10 680 17 511 -1 782 -73 1086 -49
211 -38 303 74 588 28 73 63 144 80 162 45 52 77 58 253 50 269 -13 313 4 353
132 38 125 46 186 47 343 0 173 -10 242 -61 401 -94 293 -273 533 -555 743
l-37 27 -7 -153z"/>
<path d="M27117 16793 c-46 -5 -45 -11 21 -128 61 -110 164 -245 307 -405 66
-74 163 -184 215 -244 122 -142 173 -172 213 -128 15 16 39 116 73 297 19 99
13 196 -16 264 -35 79 -98 131 -262 210 -244 118 -380 151 -551 134z"/>
<path d="M26835 12958 l-26 -23 -6 -792 c-4 -612 -2 -844 8 -1025 19 -313 16
-407 -11 -482 -62 -163 -204 -213 -450 -156 -219 49 -258 52 -980 60 -759 8
-721 11 -780 -56 -16 -19 -30 -39 -30 -43 0 -27 453 -408 585 -493 33 -21 94
-49 135 -61 l75 -24 997 3 c977 4 997 4 1051 24 61 23 119 78 143 136 43 103
37 303 -21 724 -60 432 -66 554 -39 780 28 233 10 422 -57 624 -35 104 -127
299 -196 411 -107 174 -262 402 -278 409 -37 14 -94 6 -120 -16z"/>
<path d="M31038 11815 c-78 -43 -92 -152 -86 -657 5 -394 3 -423 -39 -470 -10
-12 -38 -30 -63 -41 -43 -19 -65 -20 -848 -18 -668 2 -802 0 -795 -11 4 -8 55
-92 112 -188 167 -281 247 -377 356 -426 47 -22 76 -26 227 -34 154 -9 341
-25 858 -74 242 -23 536 -39 666 -35 104 4 124 7 157 27 71 45 69 16 70 787 2
756 -1 817 -50 908 -52 95 -166 164 -348 210 -143 36 -185 40 -217 22z"/>
<path d="M21015 17222 c-67 -22 -127 -83 -145 -147 -22 -75 -15 -197 21 -383
39 -200 46 -399 16 -463 -36 -78 -101 -130 -202 -158 -22 -6 -110 -16 -195
-22 -171 -11 -215 -20 -252 -49 -54 -42 -44 -97 64 -355 237 -563 301 -720
428 -1030 228 -560 438 -1104 612 -1589 78 -218 136 -323 227 -413 107 -104
250 -146 421 -124 128 16 141 23 134 63 -33 190 -120 460 -312 968 -162 429
-221 596 -365 1025 -63 187 -140 405 -170 485 -69 183 -84 253 -67 315 26 93
79 109 325 100 175 -6 181 -6 225 17 103 53 150 167 157 384 11 294 -62 638
-191 909 -67 140 -115 202 -222 292 -204 170 -361 224 -509 175z"/>
<path d="M18022 14810 c-69 -42 -108 -193 -99 -380 3 -72 11 -122 26 -161 41
-108 85 -125 265 -103 119 14 142 13 224 -11 24 -8 29 4 12 35 -5 10 -32 105
-60 210 -27 106 -64 221 -82 257 -39 79 -102 138 -171 158 -65 19 -75 19 -115
-5z"/>
<path d="M18100 12743 c-139 -9 -395 -47 -550 -79 -133 -29 -190 -78 -190
-163 0 -83 30 -99 183 -100 218 -2 349 -63 383 -177 17 -59 14 -105 -17 -219
-52 -194 -70 -338 -70 -540 0 -179 20 -328 67 -517 39 -156 44 -226 19 -264
-34 -52 -34 -52 -650 -43 -313 4 -608 13 -655 19 -47 6 -179 24 -295 40 -461
64 -638 65 -855 4 -84 -24 -263 -106 -308 -142 l-23 -18 218 -184 c120 -102
255 -213 300 -246 156 -119 302 -190 449 -220 109 -23 310 -15 419 16 155 43
202 50 380 57 193 6 375 -3 865 -43 257 -21 329 -23 460 -16 129 7 162 13 198
31 83 43 95 93 66 282 -25 159 -21 422 11 719 37 337 44 624 19 796 -27 189
-25 360 4 449 42 127 114 198 234 231 57 15 216 20 291 9 45 -7 45 -7 81 41
19 27 36 54 36 60 0 15 -163 89 -286 129 -227 75 -514 107 -784 88z"/>
<path d="M22304 12091 c-44 -27 -55 -67 -61 -212 -7 -170 14 -323 88 -623 91
-369 103 -457 76 -563 -20 -75 -54 -119 -115 -150 -48 -24 -60 -25 -140 -20
-60 4 -129 18 -222 46 -346 104 -581 131 -1435 161 -356 13 -537 30 -780 72
-202 35 -381 43 -448 20 -86 -31 -139 -107 -140 -203 -1 -103 39 -141 268
-257 77 -39 158 -87 180 -108 77 -71 130 -106 260 -169 213 -105 397 -155 569
-155 91 0 142 8 301 45 211 48 333 59 675 58 181 0 423 -7 570 -17 244 -16
346 -25 741 -62 252 -23 327 -4 379 101 30 60 31 127 11 422 -16 236 -10 582
13 743 19 132 19 197 1 285 -19 90 -39 135 -92 213 -79 111 -201 197 -458 319
-152 73 -196 83 -241 54z"/>
<path d="M39483 16880 c-26 -11 -50 -45 -63 -89 -5 -17 -9 -386 -10 -819 -2
-760 -7 -925 -30 -1004 -19 -66 -70 -129 -130 -159 -73 -37 -138 -43 -365 -30
-107 6 -333 7 -517 4 l-327 -6 92 -120 c102 -133 150 -179 211 -202 116 -42
1223 -39 1385 5 75 20 133 69 171 144 34 67 35 72 35 185 0 64 -3 159 -8 211
-42 529 -27 818 58 1120 65 233 68 347 10 460 -41 80 -128 150 -187 150 -34 0
-40 4 -57 38 -34 68 -205 139 -268 112z"/>
<path d="M35760 16125 c-356 -74 -589 -323 -785 -840 -84 -221 -152 -488 -191
-745 -21 -143 -30 -554 -15 -717 34 -369 164 -871 291 -1123 91 -182 262 -361
483 -508 203 -134 251 -140 422 -52 55 29 103 58 107 64 18 27 5 68 -48 147
-150 227 -254 556 -295 935 -14 138 -14 499 0 669 25 290 100 876 127 995 90
397 297 710 698 1055 l59 51 -16 31 -17 31 -237 6 c-131 3 -301 8 -378 10 -96
4 -160 1 -205 -9z"/>
<path d="M36624 15759 c-22 -25 -85 -100 -139 -169 -55 -69 -126 -156 -158
-195 -82 -98 -120 -172 -161 -311 -113 -393 -153 -756 -143 -1314 12 -656 53
-912 190 -1185 140 -279 298 -389 537 -371 100 7 249 45 322 82 80 41 180 146
208 219 31 82 37 174 16 254 -21 81 -48 125 -99 162 -58 42 -124 58 -282 69
-158 11 -224 27 -282 69 -119 86 -141 230 -73 461 59 200 65 257 63 555 -3
301 3 342 58 408 40 48 110 84 192 97 37 6 192 9 363 8 297 -3 337 0 457 34
20 6 37 15 37 20 0 10 -48 75 -149 203 -93 116 -139 209 -152 304 -29 210 -93
357 -202 466 -116 116 -233 161 -447 172 l-115 6 -41 -44z"/>
<path d="M40283 13636 l-28 -24 -1 -344 c-1 -377 -6 -417 -62 -471 -62 -59
-126 -61 -281 -7 -199 69 -282 53 -316 -63 -12 -44 -15 -209 -19 -1087 -4
-1183 -6 -1203 -79 -1282 -57 -61 -58 -61 -452 -63 -198 0 -513 -5 -700 -9
-514 -12 -664 11 -1067 162 -43 17 -79 22 -145 22 -90 0 -104 -3 -376 -65
-191 -43 -449 -88 -652 -111 -188 -22 -705 -26 -865 -6 -573 70 -1020 231
-1493 536 -55 35 -58 36 -52 14 24 -79 129 -230 227 -324 111 -109 214 -176
433 -284 833 -411 1628 -538 2391 -381 225 47 360 89 713 226 106 41 196 60
244 51 27 -5 37 -16 66 -71 96 -187 230 -239 521 -201 69 8 211 20 315 26 105
6 343 26 531 45 450 45 591 51 827 35 171 -11 196 -11 222 3 78 40 88 83 69
302 -47 538 -80 1027 -90 1365 -9 292 9 405 84 518 64 98 151 139 328 152 129
10 184 31 239 92 45 49 66 98 93 213 31 133 42 232 42 371 0 308 -41 461 -148
555 -85 75 -262 129 -423 129 -57 0 -72 -4 -96 -24z"/>
<path d="M12493 6344 c-55 -27 -104 -88 -136 -172 -46 -117 -73 -453 -63 -792
11 -404 51 -584 148 -677 91 -87 224 -82 306 11 100 115 135 317 134 791 0
473 -35 678 -133 790 -68 77 -164 95 -256 49z"/>
<path d="M33679 6342 c-42 -22 -62 -41 -91 -88 -78 -124 -102 -304 -102 -749
0 -407 22 -593 87 -722 96 -188 309 -191 409 -6 53 97 74 221 88 516 16 334
-8 708 -55 861 -56 182 -197 261 -336 188z"/>
<path d="M4750 6076 l0 -286 143 0 c211 0 295 29 339 118 20 40 23 62 23 152
0 118 -19 177 -78 238 -44 45 -79 53 -264 59 l-163 6 0 -287z"/>
<path d="M8500 6070 l0 -293 173 5 c200 6 236 16 296 84 46 52 66 115 66 204
0 89 -20 152 -66 204 -60 68 -96 78 -296 84 l-173 5 0 -293z"/>
<path d="M16300 5494 l0 -797 108 5 c165 9 277 58 342 152 37 55 84 193 105
311 38 212 27 547 -25 750 -40 158 -116 272 -213 322 -58 29 -175 53 -258 53
l-59 0 0 -796z"/>
<path d="M14393 1881 c-64 -16 -145 -64 -193 -113 -95 -96 -143 -234 -143
-408 1 -324 177 -540 443 -540 207 0 365 135 425 365 22 80 22 269 0 350 -38
146 -127 261 -245 317 -56 27 -78 32 -160 34 -52 2 -109 -1 -127 -5z"/>
<path d="M8169 1464 c-68 -197 -125 -361 -127 -366 -2 -4 111 -8 252 -8 157 0
256 4 256 10 0 5 -9 33 -19 62 -23 61 -81 225 -171 478 -34 96 -63 176 -65
178 -1 1 -58 -158 -126 -354z"/>
<path d="M11529 1876 c-2 -2 -3 -239 -1 -525 l2 -521 148 0 c234 0 319 27 414
128 90 96 128 215 128 402 0 300 -119 472 -352 510 -61 9 -330 14 -339 6z"/>
<path d="M23700 1818 c0 -4 -36 -111 -81 -240 -44 -128 -100 -290 -124 -360
l-44 -128 255 0 c156 0 254 4 254 10 0 5 -9 33 -19 62 -23 61 -81 225 -171
478 -57 161 -70 193 -70 178z"/>
<path d="M27510 1876 c0 -3 0 -135 0 -293 l-1 -288 207 -3 c239 -3 290 6 353
63 103 93 120 319 34 434 -15 19 -51 45 -82 60 -54 25 -63 26 -283 29 -126 2
-228 1 -228 -2z"/>
<path d="M34608 1458 l-126 -363 251 -3 c137 -1 252 0 255 3 3 2 -25 87 -61
187 -36 101 -93 262 -127 358 -34 96 -63 176 -65 178 -1 1 -58 -161 -127 -360z"/>
<path d="M16616 29348 c123 -127 316 -372 442 -560 273 -408 429 -787 498
-1213 26 -155 26 -505 1 -665 -90 -578 -365 -1120 -864 -1706 -51 -59 -91
-109 -90 -111 2 -1 62 15 134 37 935 282 1591 905 1753 1665 31 146 38 416 15
595 -63 500 -279 921 -666 1295 -259 251 -567 448 -943 602 -113 46 -301 113
-320 113 -6 0 13 -24 40 -52z"/>
<path d="M24786 28608 c7 -363 0 -502 -36 -714 -32 -189 -79 -280 -173 -338
-61 -38 -158 -46 -274 -22 -142 28 -201 17 -263 -50 -51 -56 -76 -140 -90
-309 -6 -71 -29 -233 -50 -360 -60 -355 -62 -382 -49 -895 8 -307 8 -656 3
-1075 -12 -819 -10 -968 16 -1168 24 -189 53 -351 81 -457 52 -193 168 -308
345 -341 115 -22 322 9 434 64 52 26 70 42 95 81 l30 50 -2 260 c-3 307 12
809 33 1126 36 561 54 899 64 1200 15 482 27 669 56 878 25 181 45 246 91 294
41 43 80 45 191 10 246 -78 357 -57 408 78 16 41 17 93 15 530 -1 267 -6 529
-12 584 -40 385 -217 632 -572 796 -91 42 -308 120 -334 120 -12 0 -13 -47 -7
-342z"/>
<path d="M13485 27699 c-79 -13 -190 -58 -229 -92 l-36 -32 -20 -210 c-22
-235 -27 -466 -11 -567 24 -146 77 -275 135 -325 65 -58 85 -60 363 -37 51 4
99 2 127 -5 38 -9 55 -9 97 5 53 18 75 17 284 -7 97 -11 117 -10 166 4 130 38
190 153 245 467 23 131 24 345 1 429 -40 149 -125 254 -256 314 -126 59 -190
67 -523 66 -161 -1 -315 -5 -343 -10z"/>
<path d="M17349 24534 c-7 -9 -14 -33 -14 -54 0 -29 9 -47 38 -81 63 -73 154
-216 221 -349 234 -462 306 -911 236 -1467 -73 -568 -218 -949 -477 -1246
-270 -309 -775 -574 -1338 -701 -584 -132 -1190 -145 -2915 -61 -757 36 -1255
45 -1920 33 -306 -5 -383 -9 -419 -22 -51 -19 -111 -54 -111 -66 0 -4 53 -50
117 -102 65 -51 177 -149 249 -218 161 -154 274 -236 429 -311 277 -134 481
-161 1005 -130 124 7 412 13 640 13 556 0 823 -15 1480 -87 562 -62 621 -66
947 -72 450 -8 690 16 1042 102 1368 336 2165 1318 2217 2731 34 931 -355
1555 -1262 2026 -137 71 -153 77 -165 62z"/>
<path d="M13545 24079 c-86 -13 -213 -55 -276 -93 -52 -31 -55 -36 -86 -118
-111 -296 -72 -577 104 -760 105 -108 216 -166 389 -204 64 -14 126 -16 327
-15 443 3 555 45 609 228 18 58 21 106 25 320 5 267 -1 339 -39 440 -11 31
-37 74 -57 96 -50 56 -101 76 -186 77 -38 0 -173 9 -300 20 -240 21 -408 24
-510 9z"/>
<path d="M24803 22383 c-62 -5 -59 15 -38 -203 8 -85 20 -351 25 -590 10 -458
18 -577 51 -779 29 -176 13 -237 -73 -283 -37 -20 -57 -23 -148 -23 -89 1
-131 7 -275 42 -621 153 -1596 235 -2270 193 -316 -20 -729 -69 -900 -107
-178 -39 -234 -119 -166 -238 55 -96 348 -392 525 -529 148 -115 319 -214 462
-265 60 -22 64 -22 320 -12 142 6 428 16 634 21 206 6 530 15 720 20 590 18
1215 3 1683 -39 214 -19 223 -17 264 56 34 62 36 106 9 273 -42 264 -50 371
-50 675 1 336 15 513 76 930 23 154 43 320 46 368 4 83 2 92 -27 152 -55 111
-136 162 -417 261 -87 31 -175 62 -194 70 -33 12 -135 15 -257 7z"/>
</g>
</svg>
